<svg xmlns="http://www.w3.org/2000/svg" width="495" height="195" viewBox="0 0 495 195">
  <rect width="495" height="195" rx="8" fill="#0b0b10" stroke="#312e81" stroke-width="1"/>
  <text x="20" y="28" fill="#c4b5fd" font-family="Segoe UI, Ubuntu, sans-serif" font-size="14" font-weight="600">Most Used Languages</text>
  <text x="20" y="60" fill="#e9d5ff" font-family="Segoe UI, Ubuntu, sans-serif" font-size="12">Jupyter Notebook</text>
  <rect x="130" y="48" width="325.0" height="16" rx="4" fill="#DA5B0B" opacity="0.9"/>
  <text x="463.0" y="60" fill="#71717a" font-family="Segoe UI, Ubuntu, sans-serif" font-size="11">77.2%</text>
  <text x="20" y="82" fill="#e9d5ff" font-family="Segoe UI, Ubuntu, sans-serif" font-size="12">TypeScript</text>
  <rect x="130" y="70" width="56.4" height="16" rx="4" fill="#3178c6" opacity="0.9"/>
  <text x="194.4" y="82" fill="#71717a" font-family="Segoe UI, Ubuntu, sans-serif" font-size="11">13.4%</text>
  <text x="20" y="104" fill="#e9d5ff" font-family="Segoe UI, Ubuntu, sans-serif" font-size="12">JavaScript</text>
  <rect x="130" y="92" width="35.6" height="16" rx="4" fill="#f7df1e" opacity="0.9"/>
  <text x="173.6" y="104" fill="#71717a" font-family="Segoe UI, Ubuntu, sans-serif" font-size="11">8.4%</text>
  <text x="20" y="126" fill="#e9d5ff" font-family="Segoe UI, Ubuntu, sans-serif" font-size="12">Python</text>
  <rect x="130" y="114" width="24.0" height="16" rx="4" fill="#3572A5" opacity="0.9"/>
  <text x="162.0" y="126" fill="#71717a" font-family="Segoe UI, Ubuntu, sans-serif" font-size="11">0.4%</text>
  <text x="20" y="148" fill="#e9d5ff" font-family="Segoe UI, Ubuntu, sans-serif" font-size="12">CSS</text>
  <rect x="130" y="136" width="24.0" height="16" rx="4" fill="#563d7c" opacity="0.9"/>
  <text x="162.0" y="148" fill="#71717a" font-family="Segoe UI, Ubuntu, sans-serif" font-size="11">0.4%</text>
  <text x="20" y="170" fill="#e9d5ff" font-family="Segoe UI, Ubuntu, sans-serif" font-size="12">HTML</text>
  <rect x="130" y="158" width="24.0" height="16" rx="4" fill="#e34c26" opacity="0.9"/>
  <text x="162.0" y="170" fill="#71717a" font-family="Segoe UI, Ubuntu, sans-serif" font-size="11">0.2%</text>
</svg>